<?xml version="1.0" encoding="UTF-8"?>
<svg xmlns="http://www.w3.org/2000/svg" xmlns:xlink="http://www.w3.org/1999/xlink" width="900.3pt" height="902.2pt" viewBox="0 0 900.3 902.2" version="1.1">
<g id="surface1">
<path style=" stroke:none;fill-rule:evenodd;fill:rgb(13.719177%,12.156677%,12.547302%);fill-opacity:1;" d="M 329.46875 21.257813 C 405.289063 0.199219 486.617188 -0.0625 562.699219 19.917969 L 563.386719 20.308594 C 566.710938 20.929688 569.921875 21.980469 573.128906 23.007813 C 573.210938 22.558594 573.359375 21.660156 573.4375 21.210938 C 573.503906 21.738281 573.609375 22.808594 573.671875 23.347656 C 576.289063 23.699219 578.820313 24.5 581.296875 25.417969 C 581.839844 25.550781 582.929688 25.808594 583.46875 25.9375 C 593.160156 29.210938 602.796875 32.609375 612.328125 36.339844 C 615.347656 37.570313 618.378906 38.820313 621.429688 40.027344 C 632.519531 44.777344 643.488281 49.847656 654.171875 55.46875 C 726.738281 93.089844 788.328125 151.230469 830.589844 221.140625 C 831.578125 222.820313 832.570313 224.507813 833.578125 226.1875 C 838.136719 233.988281 842.359375 241.96875 846.519531 249.988281 C 849.558594 256.050781 852.429688 262.1875 855.289063 268.339844 C 858.660156 276.210938 862.148438 284.039063 865.046875 292.109375 C 865.859375 294.148438 866.671875 296.210938 867.476563 298.269531 C 868.003906 299.949219 868.578125 301.628906 869.160156 303.300781 C 870.757813 307.230469 872.007813 311.300781 873.171875 315.390625 C 874.359375 318.597656 875.367188 321.878906 876.359375 325.167969 C 876.671875 326.21875 876.96875 327.269531 877.277344 328.328125 C 900.328125 409.148438 900.257813 496.558594 876.269531 577.160156 C 875.648438 579.46875 874.960938 581.757813 874.226563 584.039063 C 873.847656 585.058594 873.46875 586.078125 873.078125 587.097656 C 872.96875 587.640625 872.738281 588.71875 872.628906 589.257813 C 871.449219 592.527344 870.507813 595.878906 869.136719 599.089844 C 868.988281 599.609375 868.679688 600.667969 868.527344 601.199219 C 868.019531 602.460938 867.539063 603.730469 867.070313 605.007813 C 866.539063 606.4375 866.007813 607.878906 865.488281 609.320313 C 847.96875 655.558594 822.710938 698.847656 790.9375 736.738281 C 745.710938 791.097656 687.347656 834.488281 622.199219 862.007813 C 616.988281 864.160156 611.808594 866.367188 606.507813 868.277344 C 603.089844 869.570313 599.671875 870.847656 596.21875 872.058594 C 595.257813 872.390625 594.296875 872.730469 593.347656 873.078125 C 592.320313 873.429688 591.296875 873.777344 590.277344 874.128906 C 589.328125 874.449219 588.378906 874.78125 587.4375 875.109375 C 585.378906 875.75 583.296875 876.367188 581.230469 876.980469 C 578.757813 877.867188 576.269531 878.71875 573.671875 879.058594 C 573.609375 879.558594 573.488281 880.550781 573.429688 881.050781 C 573.347656 880.640625 573.1875 879.820313 573.109375 879.410156 C 494.1875 902.660156 408.753906 903.078125 329.488281 881.140625 C 320.71875 878.730469 312.046875 876.007813 303.429688 873.117188 C 295.347656 870.238281 287.328125 867.21875 279.367188 864.019531 C 277.320313 863.148438 275.277344 862.277344 273.238281 861.429688 C 264.460938 857.738281 255.921875 853.550781 247.328125 849.429688 C 209.46875 830.078125 174.148438 805.597656 143.253906 776.359375 C 121.277344 755.949219 101.648438 733.058594 84.210938 708.679688 C 81.808594 705.007813 79.1875 701.507813 76.769531 697.859375 C 73.289063 692.617188 69.953125 687.289063 66.636719 681.949219 C 49.617188 653.699219 35.753906 623.578125 25.226563 592.328125 C 24.910156 591.277344 24.582031 590.230469 24.21875 589.199219 C 24.066406 588.6875 23.757813 587.648438 23.597656 587.140625 C 22.738281 584.828125 22.003906 582.480469 21.417969 580.089844 C 20.296875 576.820313 19.320313 573.488281 18.429688 570.148438 C 15.710938 560.578125 13.507813 550.867188 11.460938 541.140625 C 10.636719 537.507813 10.082031 533.828125 9.414063 530.167969 C 0.0195313 478.089844 0.0273438 424.308594 9.398438 372.230469 C 9.648438 370.917969 9.898438 369.628906 10.136719 368.339844 C 10.003906 368.378906 9.707031 368.460938 9.558594 368.507813 C 10.636719 367.277344 10.546875 365.570313 10.898438 364.089844 C 13.503906 351 16.648438 338.019531 20.410156 325.207031 C 20.667969 324.480469 21.1875 323.019531 21.460938 322.289063 C 21.988281 319.898438 22.730469 317.570313 23.488281 315.25 C 23.867188 314.25 24.253906 313.25 24.636719 312.257813 C 24.769531 311.707031 25.019531 310.597656 25.148438 310.039063 C 25.503906 309.089844 25.847656 308.148438 26.1875 307.199219 C 27.082031 304.699219 28.003906 302.210938 29.039063 299.769531 C 28.710938 299.527344 28.039063 299.039063 27.703125 298.789063 C 28.296875 298.417969 28.910156 298.070313 29.527344 297.738281 C 43.148438 260.890625 61.46875 225.769531 84.210938 193.71875 C 101.636719 169.320313 121.289063 146.460938 143.253906 126.019531 C 174.171875 96.820313 209.460938 72.277344 247.359375 52.988281 C 259.777344 46.847656 272.378906 41.070313 285.277344 36.007813 C 288.386719 34.867188 291.460938 33.597656 294.578125 32.46875 C 296.878906 31.679688 299.179688 30.898438 301.410156 29.917969 C 301.921875 29.800781 302.9375 29.550781 303.460938 29.429688 C 307.636719 27.710938 312.046875 26.597656 316.320313 25.097656 C 320.699219 23.828125 325.046875 22.410156 329.46875 21.257813 Z M 329.46875 21.257813 "/>
<path style=" stroke:none;fill-rule:evenodd;fill:rgb(100%,100%,100%);fill-opacity:1;" d="M 543.4375 126.390625 C 538.636719 129.078125 533.546875 131.160156 528.527344 133.371094 C 514.269531 139.238281 499.4375 143.597656 484.460938 147.230469 C 458.386719 153.648438 431.699219 156.890625 405.339844 161.839844 L 404.558594 162.328125 C 402.828125 162.578125 401.109375 162.828125 399.410156 163.167969 C 396.71875 163.820313 394.046875 164.480469 391.398438 165.230469 C 379.828125 168.320313 368.519531 172.757813 358.449219 179.289063 C 346.578125 186.839844 337.503906 198.757813 333.730469 212.339844 C 329.757813 224.898438 330.789063 238.199219 330.671875 251.167969 C 330.617188 329.660156 330.757813 408.160156 330.589844 486.660156 C 327.476563 483.929688 324.789063 480.679688 321.199219 478.558594 C 311.128906 472.339844 299.003906 470.660156 287.347656 470.769531 C 270.109375 470.679688 252.21875 474.527344 238.136719 484.917969 C 227.988281 492.667969 220.9375 503.910156 217.320313 516.078125 C 216.988281 517.449219 216.648438 518.820313 216.269531 520.1875 C 213.71875 531.019531 213.546875 542.1875 214.046875 553.25 C 215.289063 568.398438 218.546875 583.609375 225.589844 597.1875 C 232.6875 611.730469 243.910156 624.160156 257.4375 633 C 273.4375 643.527344 292.308594 649.128906 311.296875 650.757813 C 315.628906 651.058594 320.003906 650.769531 324.308594 651.390625 C 339.128906 651.019531 353.988281 650.007813 368.460938 646.558594 C 391.128906 641.589844 412.847656 632.519531 432.558594 620.289063 C 448.410156 610.640625 462.757813 598.769531 476.269531 586.097656 C 478.949219 583.429688 481.597656 580.730469 484.320313 578.097656 C 496.277344 565.460938 507.359375 552.050781 518.160156 538.410156 C 518.96875 557 515.960938 576.277344 522.21875 594.21875 C 524.949219 602.148438 529.136719 609.570313 534.367188 616.128906 C 545.726563 630.539063 561.421875 640.710938 577.421875 649.277344 C 578.558594 649.75 579.960938 651.140625 581.136719 649.917969 C 612.738281 628.328125 644.230469 606.578125 675.898438 585.109375 C 673.429688 581.1875 670.921875 577.308594 668.421875 573.410156 C 661.6875 578.597656 654.847656 584.039063 646.578125 586.507813 C 643.171875 586.808594 639.753906 586.800781 636.347656 586.550781 C 631.839844 585.039063 628.128906 581.957031 625.597656 577.960938 C 623.847656 573.878906 621.628906 569.75 621.699219 565.1875 C 621.71875 449.847656 621.699219 334.5 621.71875 219.160156 C 621.617188 208.269531 623.449219 197.148438 628.398438 187.371094 C 632.488281 179.667969 638.777344 172.128906 647.753906 170.339844 C 647.753906 168.417969 647.753906 166.5 647.789063 164.589844 C 641.617188 164.109375 635.367188 163.730469 629.398438 161.980469 C 628.867188 161.847656 627.828125 161.589844 627.296875 161.460938 C 626.007813 160.96875 624.738281 160.507813 623.460938 160.039063 C 605.921875 153.289063 592.757813 138.167969 585.257813 121.269531 C 583.289063 116.6875 581.628906 111.988281 580.347656 107.167969 C 579.796875 105.027344 579.589844 102.828125 579.566406 100.628906 C 577.839844 100.597656 576.109375 100.570313 574.386719 100.597656 C 566.859375 112 555.378906 120.109375 543.4375 126.390625 Z M 444.046875 185.878906 C 454.046875 176.660156 468.070313 172.410156 481.519531 174.007813 C 484.527344 174.617188 487.570313 175.148438 490.527344 175.988281 C 491.503906 176.339844 492.476563 176.679688 493.46875 177.007813 C 506.347656 181.9375 517.328125 193.929688 517.628906 208.21875 C 517.738281 254.660156 517.660156 301.097656 517.671875 347.550781 C 489.378906 347.558594 461.078125 347.578125 432.789063 347.539063 C 432.769531 301.738281 432.789063 255.949219 432.777344 210.160156 C 432.6875 200.871094 437.558594 192.230469 444.046875 185.878906 Z M 432.777344 386.648438 C 461.078125 386.617188 489.378906 386.617188 517.679688 386.648438 C 517.671875 410.488281 517.6875 434.320313 517.671875 458.160156 C 517.757813 477.027344 513.847656 496.140625 504.753906 512.789063 C 495.378906 530.5 480.648438 545.128906 463.386719 555.199219 C 439.910156 569.117188 412.378906 574.75 385.339844 575.507813 C 365.679688 575.960938 345.308594 573.96875 327.476563 565.070313 C 320.128906 561.109375 312.738281 556.230469 308.46875 548.839844 C 323.777344 552.820313 339.839844 551.738281 355.449219 550.550781 C 374.007813 548.320313 392.886719 543.359375 408.089844 532.027344 C 414.671875 526.898438 420.519531 520.6875 424.660156 513.417969 C 430.410156 503.027344 432.839844 491.050781 432.789063 479.238281 C 432.777344 448.378906 432.789063 417.507813 432.777344 386.648438 Z M 309.679688 509.449219 C 313.808594 502.007813 323.429688 499.277344 331.289063 501.777344 C 330.878906 511.199219 332.699219 521.109375 329.117188 530.109375 C 327.96875 533.417969 324.96875 535.4375 322.410156 537.589844 C 322.160156 537.597656 321.648438 537.617188 321.386719 537.628906 C 316.910156 540.117188 311.648438 539.917969 306.6875 539.988281 C 307.296875 529.828125 304.816406 518.898438 309.679688 509.449219 Z M 309.679688 509.449219 "/>
<path style=" stroke:none;fill-rule:evenodd;fill:rgb(100%,100%,100%);fill-opacity:1;" d="M 279.359375 673.71875 C 275.628906 678.148438 269.847656 679.828125 264.503906 681.378906 C 263.160156 681.640625 261.828125 681.929688 260.519531 682.289063 C 253.238281 684.027344 244.878906 683.570313 238.867188 688.667969 C 235.726563 691.148438 235.019531 695.390625 235.117188 699.167969 C 235.21875 713.859375 235.027344 728.550781 235.226563 743.238281 C 228.910156 738.894531 218.84375 740.183594 215.109375 746.957031 C 213.050781 750.699219 213.441406 758.167969 215.019531 761.925781 C 216.460938 765.339844 218.84375 768.265625 221.769531 770.609375 C 227.617188 773.867188 234.519531 774.359375 241.007813 773.117188 C 251.71875 770.867188 261.308594 764.027344 267.519531 755.089844 C 268.039063 754.800781 269.089844 754.21875 269.609375 753.929688 C 269.617188 756.890625 269.398438 759.898438 270.003906 762.828125 C 271.546875 767.800781 275.960938 771.230469 280.460938 773.449219 C 286.347656 770.429688 291.476563 765.808594 297.128906 762.257813 C 297.277344 771.558594 297.007813 780.878906 297.277344 790.179688 C 297.988281 790.339844 299.410156 790.660156 300.117188 790.820313 C 300.449219 785.578125 299.398438 780.140625 301.21875 775.089844 C 303.089844 771.019531 307.847656 770.730469 311.609375 768.578125 C 312.683594 767.964844 313.003906 766.710938 312.996094 765.503906 C 312.921875 750.796875 312.890625 736.097656 312.976563 721.390625 C 313.9375 721.410156 315.847656 721.4375 316.808594 721.457031 C 316.808594 719.769531 316.820313 718.078125 316.839844 716.398438 C 315.539063 716.410156 314.253906 716.429688 312.960938 716.449219 C 312.921875 710.699219 312.878906 704.949219 312.960938 699.210938 C 316.109375 700.777344 318.816406 703.558594 322.429688 703.949219 C 328.699219 703.398438 332.898438 698.148438 337.921875 694.96875 C 339.699219 693.179688 343.410156 692.339844 343.058594 689.269531 C 340.238281 690.640625 337.769531 693.347656 334.378906 692.96875 C 330.617188 692.960938 327.878906 690.019531 325.617188 687.390625 C 318.199219 692.328125 310.636719 697.070313 303.199219 701.980469 C 301.289063 703.269531 299.257813 704.640625 298.117188 706.71875 C 296.96875 709.808594 297.117188 713.128906 297.136719 716.378906 C 295.777344 716.398438 294.429688 716.429688 293.089844 716.46875 C 293.109375 718.140625 293.117188 719.808594 293.128906 721.5 C 294.476563 721.46875 295.828125 721.46875 297.1875 721.46875 C 297.160156 733.699219 297.21875 745.9375 297.171875 758.167969 C 297.359375 762.839844 288.503906 763.269531 288.277344 758.550781 C 288.179688 737.4375 288.238281 716.320313 288.238281 695.210938 C 288.027344 691.089844 289.886719 687.148438 293.539063 685.109375 C 287.027344 684.910156 281.570313 679.898438 280.628906 673.5 C 280.308594 673.550781 279.671875 673.667969 279.359375 673.71875 Z M 341.617188 695.417969 C 339.109375 697.238281 336.648438 699.109375 334.238281 701.050781 C 331.636719 703.097656 328.921875 705.007813 326.398438 707.160156 C 323.847656 709.527344 324.296875 713.328125 324.179688 716.488281 C 322.808594 716.480469 321.449219 716.480469 320.089844 716.488281 C 320.109375 718.1875 320.117188 719.898438 320.136719 721.609375 C 321.488281 721.589844 322.839844 721.578125 324.199219 721.589844 C 324.320313 734.839844 324.089844 748.097656 324.320313 761.347656 C 324.519531 767.027344 329.027344 771.050781 333.589844 773.710938 C 338.4375 770.21875 343.199219 766.589844 348.199219 763.308594 C 348.027344 762.960938 347.710938 762.25 347.539063 761.898438 C 345.179688 763.609375 341.347656 764.890625 339.949219 761.347656 C 340.007813 748.117188 339.976563 734.878906 339.976563 721.648438 C 341.503906 721.597656 343.039063 721.597656 344.570313 721.578125 C 344.589844 719.917969 344.609375 718.25 344.636719 716.597656 C 343.089844 716.550781 341.539063 716.5 340.003906 716.488281 C 339.976563 710.359375 339.367188 703.898438 342.449219 698.320313 C 343.828125 696.730469 345.316406 695.25 346.910156 693.890625 C 346.570313 693.480469 345.886719 692.660156 345.546875 692.25 C 344.238281 693.300781 342.9375 694.367188 341.617188 695.417969 Z M 420.570313 710.417969 C 416.070313 713.1875 412.410156 717.089844 408.238281 720.308594 C 406.777344 716.007813 403.449219 712.730469 399.476563 710.679688 C 396.296875 711.390625 394.210938 714.597656 391.519531 716.390625 C 389.609375 718.570313 385.503906 719.578125 385.636719 722.980469 C 386.886719 722.1875 388.136719 721.4375 389.367188 720.628906 C 389.878906 720.730469 390.898438 720.9375 391.421875 721.039063 C 391.730469 721.539063 392.359375 722.539063 392.671875 723.039063 C 392.726563 739.359375 392.519531 755.679688 392.789063 771.988281 C 397.878906 771.839844 402.96875 771.898438 408.058594 771.910156 C 408.078125 756.660156 408.078125 741.417969 408.058594 726.167969 C 408.003906 724.617188 408.4375 723.160156 408.867188 721.71875 C 411.199219 720.507813 413.699219 720.539063 415.960938 721.910156 C 416.546875 735.347656 415.949219 748.820313 416.257813 762.269531 C 416.847656 767.628906 421.359375 771.597656 426.179688 773.410156 C 430.753906 769.910156 435.359375 766.449219 440.089844 763.160156 C 439.988281 762.757813 439.789063 761.96875 439.6875 761.570313 C 437.839844 762.597656 435.648438 764.710938 433.476563 763.371094 C 431.867188 762.640625 431.910156 760.75 431.808594 759.277344 C 431.769531 747.269531 431.859375 735.257813 431.796875 723.25 C 432.121094 717.601563 425.546875 711.824219 420.570313 710.417969 Z M 352.136719 721.019531 C 349.46875 722.25 348.753906 725.449219 348.839844 728.128906 C 348.886719 737.179688 348.808594 746.21875 348.878906 755.269531 C 348.710938 758.160156 349.949219 760.808594 350.988281 763.429688 C 353.089844 766.089844 355.710938 768.277344 358.589844 770.058594 C 361.019531 771.128906 363.429688 772.277344 365.710938 773.648438 C 371.4375 769.449219 377.257813 765.367188 382.96875 761.148438 C 383.046875 760.679688 383.21875 759.730469 383.296875 759.257813 C 378.359375 762.078125 372.269531 763.6875 367.007813 760.628906 C 364.148438 757.367188 364.679688 752.949219 364.757813 748.949219 C 369.289063 747.910156 374.109375 746.699219 377.460938 743.238281 C 383.003906 738.140625 384.578125 729.859375 383.210938 722.6875 C 382.21875 717.308594 378.269531 712.917969 373.460938 710.570313 C 366.238281 713.808594 359.058594 717.179688 352.136719 721.019531 Z M 253.839844 692.277344 C 255.046875 685.207031 267.007813 684.359375 269.027344 691.320313 C 269.367188 700.328125 269.097656 709.371094 269.148438 718.398438 C 264.046875 718.488281 258.9375 718.339844 253.828125 718.5 C 253.753906 709.757813 253.679688 701.019531 253.839844 692.277344 Z M 364.808594 719.097656 C 372.980469 725.609375 373.089844 739.660156 364.980469 746.347656 C 364.480469 737.277344 364.71875 728.179688 364.808594 719.097656 Z M 253.71875 725.507813 C 258.898438 725.519531 264.078125 725.480469 269.257813 725.550781 C 268.976563 731.820313 269.519531 738.128906 268.796875 744.390625 C 266.738281 751.128906 261.289063 756.230469 254.71875 758.519531 C 249.175781 759.886719 243.234375 760.097656 237.644531 758.921875 C 235.691406 758.511719 232.03125 757.613281 231.757813 755.238281 C 237.6875 755.9375 244.21875 755.507813 249.253906 751.988281 C 251.628906 750.449219 252.679688 747.71875 253.753906 745.230469 C 253.789063 738.660156 253.777344 732.078125 253.71875 725.507813 Z M 235.136719 746.21875 C 235.089844 751.40625 236.1875 752.351563 230.757813 753.777344 C 229.757813 750.164063 230.214844 747.027344 235.136719 746.21875 Z M 235.136719 746.21875 "/>
<path style=" stroke:none;fill-rule:evenodd;fill:rgb(100%,100%,100%);fill-opacity:1;" d="M 457.410156 720.289063 C 455.898438 715.828125 452.253906 712.738281 448.386719 710.308594 L 434.027344 721.644531 L 434.617188 722.910156 C 436.898438 721.539063 439.867188 719.628906 441.859375 722.550781 L 441.585938 792.980469 C 441.574219 795.328125 438.851563 798.316406 437.507813 800.277344 C 443.488281 799.800781 449.003906 796.960938 453.199219 792.738281 C 455.738281 795.507813 459.503906 796.25 463.109375 795.839844 C 460.347656 793.898438 458.148438 791.039063 457.808594 787.609375 C 457.136719 780.160156 458.109375 772.648438 457.179688 765.230469 C 461.777344 767.210938 465.539063 770.71875 469.476563 773.757813 C 473.328125 771.617188 477.578125 769.460938 479.847656 765.488281 C 481.480469 762.660156 481.007813 759.300781 481.089844 756.199219 C 480.949219 744.898438 481.21875 733.597656 480.960938 722.320313 C 480.738281 716.570313 474.4375 712.8125 470.410156 709.730469 Z M 493.378906 718 C 490.078125 719.25 486.597656 721.929688 486.828125 725.847656 C 486.777344 737.1875 486.636719 748.550781 486.898438 759.890625 C 488.117188 765.078125 494.160156 766.550781 497.671875 769.917969 C 498.699219 771.140625 499.730469 772.371094 500.710938 773.660156 C 508.378906 770.808594 516.269531 768.269531 523.421875 764.21875 C 527.578125 762.167969 526.980469 757.039063 526.980469 753.1875 C 526.738281 743.128906 527.308594 733.039063 526.699219 723.019531 C 523.710938 717.460938 516.449219 716 513.230469 710.46875 C 506.546875 712.800781 499.949219 715.367188 493.378906 718 Z M 502.96875 719.039063 C 508.507813 721.320313 511.257813 727.480469 511.21875 733.199219 C 511.171875 743.859375 511.386719 754.519531 511.058594 765.179688 C 505.921875 762.527344 503.003906 756.847656 502.96875 751.179688 C 502.878906 740.460938 502.867188 729.75 502.96875 719.039063 Z M 457.878906 722.6875 C 459.117188 719.800781 462.847656 720.640625 465.058594 721.878906 L 465.058594 762.15625 C 465.058594 763.820313 462.691406 764.796875 461.238281 764.410156 C 460.089844 764.105469 458.960938 763.769531 457.839844 763.429688 L 457.601563 725.738281 C 457.59375 724.714844 457.730469 723.699219 457.878906 722.6875 Z M 457.878906 722.6875 "/>
<path style=" stroke:none;fill-rule:evenodd;fill:rgb(100%,100%,100%);fill-opacity:1;" d="M 532.835938 790.089844 C 533.546875 790.25 534.964844 790.570313 535.671875 790.730469 C 536.003906 785.492188 534.953125 780.050781 536.773438 775 C 538.644531 770.929688 543.40625 770.640625 547.164063 768.492188 C 548.238281 767.875 548.554688 766.621094 548.550781 765.414063 C 548.472656 750.707031 548.445313 736.007813 548.535156 721.300781 C 549.492188 721.320313 551.402344 721.351563 552.363281 721.371094 C 552.363281 719.679688 552.378906 717.992188 552.394531 716.308594 C 551.09375 716.320313 549.804688 716.339844 548.511719 716.359375 C 548.472656 710.609375 548.433594 704.859375 548.511719 699.121094 C 551.664063 700.691406 554.378906 703.46875 557.984375 703.859375 C 560.675781 703.625 563.0625 702.625 565.144531 701.085938 L 579.589844 690.417969 L 578.613281 689.179688 C 576.070313 690.695313 573.324219 693.261719 569.933594 692.878906 C 566.171875 692.871094 563.433594 689.929688 561.171875 687.300781 C 553.753906 692.242188 546.195313 696.980469 538.753906 701.890625 C 536.84375 703.179688 534.8125 704.550781 533.671875 706.628906 C 532.523438 709.71875 532.671875 713.039063 532.695313 716.289063 C 531.335938 716.308594 529.984375 716.339844 528.644531 716.378906 C 528.664063 718.050781 528.671875 719.71875 528.683594 721.410156 C 530.035156 721.378906 531.382813 721.378906 532.742188 721.378906 Z M 577.171875 695.332031 C 574.664063 697.152344 572.203125 699.019531 569.796875 700.960938 C 567.195313 703.011719 564.472656 704.921875 561.953125 707.070313 C 559.402344 709.441406 559.855469 713.242188 559.734375 716.398438 C 558.363281 716.390625 557.003906 716.390625 555.644531 716.398438 C 555.664063 718.101563 555.671875 719.808594 555.695313 721.519531 C 557.046875 721.5 558.394531 721.492188 559.753906 721.5 C 559.878906 734.75 559.644531 748.011719 559.878906 761.261719 C 560.074219 766.941406 564.585938 770.960938 569.144531 773.621094 C 573.992188 770.128906 578.753906 766.5 583.753906 763.21875 C 583.585938 762.871094 583.261719 762.160156 583.09375 761.808594 C 580.734375 763.519531 576.902344 764.800781 575.503906 761.261719 C 575.5625 748.03125 575.535156 734.789063 575.535156 721.558594 C 577.054688 721.511719 578.59375 721.511719 580.128906 721.492188 C 580.144531 719.832031 580.164063 718.160156 580.195313 716.511719 C 578.644531 716.460938 577.09375 716.410156 575.554688 716.398438 C 575.535156 710.269531 574.921875 703.808594 578.003906 698.230469 C 579.382813 696.640625 580.878906 695.160156 582.464844 693.800781 C 582.128906 693.390625 581.445313 692.570313 581.105469 692.160156 C 579.796875 693.210938 578.492188 694.28125 577.171875 695.332031 Z M 656.128906 710.332031 C 651.628906 713.101563 647.964844 717 643.796875 720.21875 C 642.335938 715.921875 639.003906 712.640625 635.035156 710.589844 L 620.214844 721.214844 L 621.195313 722.890625 C 622.265625 722.214844 623.339844 721.566406 624.394531 720.882813 C 625.902344 719.917969 628.222656 721.636719 628.226563 723.410156 C 628.28125 739.578125 628.078125 755.742188 628.34375 771.898438 L 643.613281 771.820313 L 643.886719 722.929688 C 645.921875 719.355469 650.339844 719.511719 651.511719 721.820313 C 652.105469 735.261719 651.503906 748.730469 651.8125 762.179688 C 652.402344 767.539063 656.914063 771.511719 661.734375 773.320313 L 675.835938 762.9375 L 675.242188 761.480469 C 673.394531 762.511719 671.203125 764.621094 669.035156 763.28125 C 667.421875 762.550781 667.464844 760.660156 667.363281 759.191406 C 667.324219 747.179688 667.414063 735.171875 667.355469 723.160156 C 667.679688 717.511719 661.097656 711.734375 656.128906 710.332031 Z M 587.695313 720.929688 C 585.023438 722.160156 584.304688 725.359375 584.394531 728.039063 C 584.445313 737.089844 584.363281 746.128906 584.433594 755.179688 C 584.261719 758.070313 585.503906 760.71875 586.546875 763.339844 C 588.644531 766 591.261719 768.191406 594.144531 769.96875 C 596.574219 771.039063 598.984375 772.191406 601.261719 773.558594 C 606.992188 769.359375 612.8125 765.28125 618.523438 761.058594 C 618.605469 760.589844 618.773438 759.640625 618.851563 759.171875 C 613.914063 761.992188 607.824219 763.601563 602.5625 760.539063 C 599.703125 757.28125 600.234375 752.859375 600.3125 748.859375 C 604.84375 747.820313 609.664063 746.609375 613.011719 743.148438 C 618.554688 738.050781 620.132813 729.769531 618.761719 722.601563 C 617.773438 717.21875 613.824219 712.832031 609.011719 710.480469 C 601.796875 713.71875 594.613281 717.089844 587.695313 720.929688 Z M 600.363281 719.011719 C 608.535156 725.519531 608.644531 739.570313 600.535156 746.261719 C 600.035156 737.191406 600.273438 728.089844 600.363281 719.011719 Z M 600.363281 719.011719 "/>
</g>
</svg>
